<?xml version="1.0" standalone="no"?>
<!DOCTYPE svg PUBLIC "-//W3C//DTD SVG 20010904//EN"
 "http://www.w3.org/TR/2001/REC-SVG-20010904/DTD/svg10.dtd">
<svg version="1.0" xmlns="http://www.w3.org/2000/svg"
 width="558.000000pt" height="558.000000pt" viewBox="0 0 558.000000 558.000000"
 preserveAspectRatio="xMidYMid meet">
<metadata>
Created by potrace 1.14, written by Peter Selinger 2001-2017
</metadata>
<g transform="translate(0.000000,558.000000) scale(0.100000,-0.100000)"
fill="#000000" stroke="none">
<path d="M0 2790 l0 -2790 2790 0 2790 0 0 2790 0 2790 -2790 0 -2790 0 0
-2790z m4126 1404 c-2 -6 -48 -14 -108 -17 -109 -7 -226 -25 -323 -51 -33 -8
-61 -13 -63 -11 -4 4 150 282 358 650 31 55 74 132 96 170 l39 70 3 -400 c1
-220 0 -405 -2 -411z m-968 661 c2 -2 -15 -35 -37 -74 l-39 -70 70 -111 70
-111 17 28 c10 15 44 75 76 131 32 57 64 106 70 109 10 3 257 -98 273 -112 1
-1 -54 -102 -124 -224 l-126 -222 58 -92 c107 -169 184 -287 187 -287 2 0 30
9 63 20 79 27 230 57 332 64 l82 6 -2 -1112 -3 -1113 -80 3 c-101 3 -222 25
-321 57 -73 24 -77 25 -89 8 -43 -58 -225 -352 -225 -363 0 -7 54 -107 120
-222 66 -116 120 -214 120 -218 0 -4 -61 -34 -135 -68 -97 -43 -137 -57 -143
-49 -5 7 -40 67 -78 134 -37 68 -71 123 -75 123 -7 0 -125 -177 -135 -203 -3
-8 11 -41 30 -75 20 -33 36 -65 36 -70 0 -10 -255 -26 -325 -20 l-39 3 -79
139 c-43 76 -76 140 -74 142 3 3 43 8 90 11 l86 6 65 102 c36 56 66 106 66
110 0 4 -76 4 -169 0 l-169 -7 -6 43 c-3 24 -8 85 -11 135 l-6 92 58 6 c32 3
126 8 208 11 83 3 182 8 222 11 l72 6 75 117 c41 64 96 148 121 186 l45 70
-42 35 c-232 190 -376 414 -428 664 l-11 56 -247 -2 -246 -3 -139 -190 c-76
-104 -145 -198 -152 -208 -12 -18 -21 -14 -137 54 -67 40 -125 74 -127 76 -4
3 47 79 135 201 l45 62 -140 0 -141 0 -47 -65 c-26 -36 -49 -65 -52 -65 -11 1
-196 265 -195 277 2 16 187 272 196 270 3 -1 27 -30 52 -64 l46 -63 140 0 c77
0 140 2 140 5 0 3 -41 59 -90 126 -50 66 -90 123 -90 127 0 4 57 40 127 80 94
53 129 69 135 60 4 -7 72 -101 150 -208 l143 -195 244 0 244 0 22 85 c39 149
88 255 173 375 54 77 173 200 240 248 23 17 42 34 42 39 0 6 -218 356 -235
375 -1 2 -107 8 -236 13 -129 6 -253 13 -276 16 l-43 5 0 43 c0 24 3 85 7 135
l6 93 175 -7 c147 -6 173 -5 166 6 -4 8 -36 58 -71 112 l-63 97 -67 1 c-123 2
-122 -6 -29 158 l81 144 185 -8 c102 -3 186 -8 188 -10z m-583 -981 c286 -15
523 -30 528 -34 4 -3 -21 -30 -57 -58 -178 -145 -345 -399 -411 -628 -14 -48
-27 -89 -28 -90 -3 -3 -611 823 -615 836 -2 5 12 7 30 5 18 -3 267 -17 553
-31z m45 -1383 c0 -28 44 -151 88 -243 73 -157 215 -342 341 -444 33 -27 57
-51 53 -55 -4 -3 -236 -18 -517 -33 -280 -14 -530 -29 -554 -32 -28 -4 -42 -2
-40 5 4 10 198 276 496 679 106 142 133 168 133 123z m1170 -1047 c63 -13 166
-27 228 -31 l112 -6 0 -411 c0 -239 -4 -406 -9 -401 -7 8 -435 777 -481 864
-12 23 -11 24 11 17 13 -4 76 -18 139 -32z"/>
</g>
</svg>
